<svg id="bold" enable-background="new 0 0 32 32" height="512" viewBox="0 0 32 32" width="512" xmlns="http://www.w3.org/2000/svg"><path d="m26 32h-20c-3.314 0-6-2.686-6-6v-20c0-3.314 2.686-6 6-6h20c3.314 0 6 2.686 6 6v20c0 3.314-2.686 6-6 6z" fill="#f5e6fe"/><path d="m8.571 21.387c-.05 0-.079-.001-.085-.001-.276-.007-.493-.237-.486-.513s.239-.5.513-.486c.028 0 2.804.061 5.845-1.075 4.022-1.501 6.592-4.283 7.637-8.266.07-.267.343-.426.611-.357.267.07.427.343.357.611-2.58 9.833-13.324 10.087-14.392 10.087z" fill="#d9a4fc"/><path d="m23.5 13.399c-.043 0-.087-.006-.13-.017l-2.732-.732c-.195-.052-.34-.217-.366-.418-.026-.2.071-.397.246-.498l1.732-1c.239-.138.545-.057.683.183l1 1.732c.101.175.087.394-.036.554-.097.125-.244.196-.397.196z" fill="#d9a4fc"/><g fill="#be63f9"><path d="m22.5 24c-.368 0-.667-.299-.667-.667v-8c0-.368.299-.667.667-.667s.667.299.667.667v8c0 .369-.299.667-.667.667z"/><path d="m18.5 24c-.368 0-.667-.299-.667-.667v-3.333c0-.368.299-.667.667-.667s.667.299.667.667v3.333c0 .369-.299.667-.667.667z"/><path d="m14.5 24c-.368 0-.667-.299-.667-.667v-1.333c0-.368.299-.667.667-.667s.667.299.667.667v1.333c0 .369-.299.667-.667.667z"/><path d="m10.5 24c-.368 0-.667-.299-.667-.667v-.333c0-.368.299-.667.667-.667s.667.299.667.667v.333c0 .369-.299.667-.667.667z"/><path d="m17.902 8.098c-.064-.064-.159-.101-.242-.098-1.885.035-4.083 1.135-5.48 2.733-1.51.054-2.77.509-3.557 1.295-.085.085-.118.21-.085.326s.126.205.243.234l1.42.34-.009.01c-.118.132-.113.333.012.459l2.398 2.398c.065.065.15.098.236.098.08 0 .16-.028.223-.086l.01-.009.34 1.42c.028.118.118.211.234.243.03.008.06.013.09.013.087 0 .172-.034.236-.098.786-.786 1.241-2.047 1.295-3.557 1.6-1.401 2.698-3.596 2.733-5.479.003-.091-.033-.178-.097-.242z"/></g><path d="m9.144 14.898c-.448.448-1.02 2.305-1.13 2.673-.035.118-.003.245.084.331.063.064.148.098.235.098.032 0 .064-.005.096-.014.368-.11 2.226-.682 2.673-1.13.54-.54.54-1.418 0-1.958-.541-.54-1.419-.54-1.958 0z" fill="#d9a4fc"/></svg>