<?xml version="1.0"?>
<svg xmlns="http://www.w3.org/2000/svg" id="bold" enable-background="new 0 0 32 32" height="512px" viewBox="0 0 32 32" width="512px" class=""><g><path d="m26 32h-20c-3.314 0-6-2.686-6-6v-20c0-3.314 2.686-6 6-6h20c3.314 0 6 2.686 6 6v20c0 3.314-2.686 6-6 6z" fill="#e3f8fa" data-original="#E3F8FA" class=""/><path d="m23.333 13.333v-4.833c0-.276-.224-.5-.5-.5h-1.667c-.276 0-.5.224-.5.5v4.833h-1.333v-2.167c0-.276-.224-.5-.5-.5h-1.667c-.276 0-.5.224-.5.5v2.167c-.367 0-.666.299-.666.667s.299.667.667.667h6.667c.368 0 .666-.299.666-.667s-.298-.667-.667-.667z" fill="#8ce1eb" data-original="#8CE1EB" class="active-path" style="fill:#FB5252" data-old_color="#8ce1eb"/><g fill="#26c6da"><path d="m12.667 13.333c-.735 0-1.333-.598-1.333-1.333s.598-1.333 1.333-1.333 1.333.598 1.333 1.333-.598 1.333-1.333 1.333z" data-original="#26C6DA" class="" data-old_color="#26C6DA" style="fill:#FB5252"/><path d="m14.833 16h-4.333c-.276 0-.5-.224-.5-.5 0-.827.673-1.5 1.5-1.5h2.333c.827 0 1.5.673 1.5 1.5 0 .276-.224.5-.5.5z" data-original="#26C6DA" class="" data-old_color="#26C6DA" style="fill:#FB5252"/><circle cx="22" cy="20.333" r="1" data-original="#26C6DA" class="" data-old_color="#26C6DA" style="fill:#FB5252"/><path d="m23.5 24h-3c-.276 0-.5-.224-.5-.5 0-.827.673-1.5 1.5-1.5h1c.827 0 1.5.673 1.5 1.5 0 .276-.224.5-.5.5z" data-original="#26C6DA" class="" data-old_color="#26C6DA" style="fill:#FB5252"/><circle cx="16.667" cy="20.333" r="1" data-original="#26C6DA" class="" data-old_color="#26C6DA" style="fill:#FB5252"/><path d="m18.167 24h-3c-.276 0-.5-.224-.5-.5 0-.827.673-1.5 1.5-1.5h1c.827 0 1.5.673 1.5 1.5 0 .276-.224.5-.5.5z" data-original="#26C6DA" class="" data-old_color="#26C6DA" style="fill:#FB5252"/><path d="m16.667 16.667h-8c-.369 0-.667.298-.667.666s.298.667.667.667h.748l.585 5.553c.027.254.247.447.5.447h2.911c-.046-.16-.078-.326-.078-.5 0-.941.466-1.771 1.175-2.287-.111-.272-.175-.568-.175-.88 0-1.018.659-1.877 1.57-2.195l.015-.138h.748c.368 0 .667-.299.667-.667s-.298-.666-.666-.666z" data-original="#26C6DA" class="" data-old_color="#26C6DA" style="fill:#FB5252"/></g></g> </svg>
