<?xml version="1.0"?>
<svg xmlns="http://www.w3.org/2000/svg" id="bold" enable-background="new 0 0 32 32" height="512px" viewBox="0 0 32 32" width="512px" class="hovered-paths"><g><path d="m26 32h-20c-3.314 0-6-2.686-6-6v-20c0-3.314 2.686-6 6-6h20c3.314 0 6 2.686 6 6v20c0 3.314-2.686 6-6 6z" fill="#ffe6e2" data-original="#FFE6E2" class="active-path" style="fill:#FFE6E2"/><g fill="#fc573b"><path d="m12.667 13.333c-.735 0-1.333-.598-1.333-1.333s.598-1.333 1.333-1.333 1.333.598 1.333 1.333-.598 1.333-1.333 1.333z" data-original="#FC573B" class=""/><path d="m14.833 16h-4.333c-.276 0-.5-.224-.5-.5 0-.827.673-1.5 1.5-1.5h2.333c.827 0 1.5.673 1.5 1.5 0 .276-.224.5-.5.5z" data-original="#FC573B" class=""/><circle cx="22" cy="20.333" r="1" data-original="#FC573B" class=""/><path d="m23.5 24h-3c-.276 0-.5-.224-.5-.5 0-.827.673-1.5 1.5-1.5h1c.827 0 1.5.673 1.5 1.5 0 .276-.224.5-.5.5z" data-original="#FC573B" class=""/><circle cx="16.667" cy="20.333" r="1" data-original="#FC573B" class=""/><path d="m18.167 24h-3c-.276 0-.5-.224-.5-.5 0-.827.673-1.5 1.5-1.5h1c.827 0 1.5.673 1.5 1.5 0 .276-.224.5-.5.5z" data-original="#FC573B" class=""/></g><path d="m22.833 8h-5.667c-.643 0-1.166.523-1.166 1.167v3c0 .643.523 1.167 1.167 1.167h.833v1.5c0 .446.541.666.854.354l1.854-1.854h2.126c.643 0 1.167-.523 1.167-1.167v-3c-.001-.644-.524-1.167-1.168-1.167zm-4.833 3.333c-.368 0-.667-.298-.667-.667 0-.368.299-.666.667-.666s.667.298.667.667c0 .368-.299.666-.667.666zm2 0c-.368 0-.667-.298-.667-.667 0-.368.299-.666.667-.666s.667.298.667.667c0 .368-.299.666-.667.666zm2 0c-.368 0-.667-.298-.667-.667 0-.368.299-.666.667-.666s.667.298.667.667c0 .368-.299.666-.667.666z" fill="#fd907e" data-original="#FD907E" class="" style="fill:#FD907E"/><path d="m16.667 16.667h-8c-.369 0-.667.298-.667.666s.298.667.667.667h.748l.585 5.553c.027.254.247.447.5.447h2.911c-.046-.16-.078-.326-.078-.5 0-.941.466-1.771 1.175-2.287-.111-.272-.175-.568-.175-.88 0-1.018.659-1.877 1.57-2.195l.015-.138h.748c.368 0 .667-.299.667-.667s-.298-.666-.666-.666z" fill="#fc573b" data-original="#FC573B" class=""/></g> </svg>
