<svg enable-background="new 0 0 32 32" height="512" viewBox="0 0 32 32" width="512" xmlns="http://www.w3.org/2000/svg"><path d="m26 32h-20c-3.314 0-6-2.686-6-6v-20c0-3.314 2.686-6 6-6h20c3.314 0 6 2.686 6 6v20c0 3.314-2.686 6-6 6z" fill="#f5e6fe"/><path d="m19.981 10.202-8.244 3.298h-2.237c-.827 0-1.5.673-1.5 1.5v1.833c0 .785.617 1.333 1.5 1.333h.566l.605 4.238c.035.246.246.429.495.429h2c.143 0 .278-.061.373-.167.094-.106.14-.247.124-.389l-.392-3.497 6.71 2.684c.06.024.123.036.186.036.098 0 .197-.029.281-.086.137-.093.219-.248.219-.414v-10.333c0-.166-.082-.321-.219-.414-.139-.094-.313-.112-.467-.051z" fill="#be63f9"/><g fill="#d9a4fc"><path d="m21.833 14.5c.11 0 .22-.036.313-.109l1.667-1.333c.215-.173.251-.488.078-.703s-.488-.249-.703-.078l-1.667 1.333c-.215.173-.251.488-.078.703.099.123.244.187.39.187z"/><path d="m22.146 17.943c-.215-.171-.529-.137-.703.078-.173.215-.137.531.078.703l1.667 1.333c.092.074.202.109.313.109.146 0 .292-.064.391-.188.173-.215.137-.531-.078-.703z"/><path d="m21.833 16.667h1.667c.276 0 .5-.224.5-.5s-.224-.5-.5-.5h-1.667c-.276 0-.5.224-.5.5s.224.5.5.5z"/></g></svg>