<svg id="bold" enable-background="new 0 0 32 32" height="512" viewBox="0 0 32 32" width="512" xmlns="http://www.w3.org/2000/svg"><path d="m26 32h-20c-3.314 0-6-2.686-6-6v-20c0-3.314 2.686-6 6-6h20c3.314 0 6 2.686 6 6v20c0 3.314-2.686 6-6 6z" fill="#ffe6e2"/><path d="m21.867 13.687c-.547 0-1.047-.207-1.42-.547v2.513h-1.7c.153-.34.233-.72.233-1.107 0-1.547-1.26-2.8-2.8-2.8-1.547 0-2.8 1.253-2.8 2.8 0 .387.08.767.227 1.107h-2.053v-6.94c0-.393.32-.713.713-.713h7.467c.393 0 .713.32.713.713v1.253c.48-.433 1.153-.647 1.88-.493.82.167 1.487.853 1.633 1.68.254 1.354-.779 2.534-2.093 2.534z" fill="#fd907e"/><path d="m16.925 19.328c-.249 1.358.782 2.539 2.097 2.539.547 0 1.045-.206 1.422-.548v1.97c0 .391-.32.711-.711.711h-7.465c-.391 0-.711-.32-.711-.711v-1.97c-.483.434-1.159.647-1.884.498-.818-.171-1.486-.853-1.635-1.678-.249-1.359.782-2.539 2.097-2.539.547 0 1.045.206 1.422.548v-1.825h3.441c-.576-.384-.953-1.031-.953-1.778 0-1.18.953-2.133 2.133-2.133s2.133.953 2.133 2.133c0 .747-.377 1.394-.953 1.778h3.086v1.825c-.483-.434-1.159-.647-1.884-.498-.817.17-1.486.853-1.635 1.678z" fill="#fc573b"/></svg>